<?xml version="1.0" standalone="no"?>
<!DOCTYPE svg PUBLIC "-//W3C//DTD SVG 20010904//EN"
 "http://www.w3.org/TR/2001/REC-SVG-20010904/DTD/svg10.dtd">
<svg version="1.0" xmlns="http://www.w3.org/2000/svg"
 width="850.000000pt" height="850.000000pt" viewBox="0 0 850.000000 850.000000"
 preserveAspectRatio="xMidYMid meet">
<metadata>
Created by potrace 1.14, written by Peter Selinger 2001-2017
</metadata>
<g transform="translate(0.000000,850.000000) scale(0.100000,-0.100000)"
fill="#000000" stroke="none">
<path d="M0 4250 l0 -2750 4250 0 4250 0 0 2750 0 2750 -4250 0 -4250 0 0
-2750z m8350 -5 l0 -2605 -4100 0 -4100 0 0 2605 0 2605 4100 0 4100 0 0
-2605z"/>
<path d="M6080 5693 c-274 -35 -498 -158 -632 -348 -93 -131 -138 -268 -142
-433 -7 -273 97 -484 309 -623 92 -61 242 -122 510 -208 318 -102 442 -172
513 -290 41 -68 53 -121 51 -224 -3 -147 -51 -261 -152 -359 -76 -73 -183
-121 -322 -143 -94 -15 -282 -1 -352 26 -16 6 -29 10 -31 9 -1 -1 -24 7 -50
16 -54 21 -135 67 -207 119 -113 81 -169 115 -189 115 -40 0 -83 -38 -130
-114 -25 -42 -53 -87 -61 -100 -14 -21 -13 -25 13 -52 64 -71 212 -175 337
-237 54 -27 189 -74 239 -83 167 -31 380 -39 506 -19 193 31 401 134 523 259
99 102 180 246 218 391 27 103 34 310 14 411 -33 172 -135 316 -295 419 -113
73 -193 105 -640 261 -217 75 -352 169 -407 282 -24 50 -27 69 -28 152 0 93 4
113 46 207 44 99 176 193 319 227 66 15 281 17 344 2 69 -16 191 -71 273 -123
124 -79 139 -85 172 -78 40 8 61 35 119 147 l51 97 -47 39 c-156 130 -329 208
-539 243 -65 10 -281 18 -333 12z"/>
<path d="M1663 5656 c-4 -6 -7 -660 -8 -1453 l0 -1442 175 1 175 2 -1 1075
c-1 592 -5 1114 -8 1160 -3 47 -4 83 -2 80 3 -3 260 -463 511 -914 15 -27 76
-135 135 -240 58 -104 110 -197 113 -205 4 -8 17 -31 28 -50 12 -19 66 -116
121 -215 56 -99 112 -195 126 -214 31 -42 76 -61 147 -61 64 0 111 17 141 51
23 27 28 34 200 351 35 64 77 140 94 168 16 28 30 53 30 55 0 3 44 85 99 182
103 187 363 659 414 753 46 84 179 325 181 327 0 1 0 -517 -2 -1151 l-3 -1153
174 0 173 0 0 1452 1 1452 -184 -1 c-177 -2 -183 -3 -208 -26 -14 -13 -68
-102 -122 -199 -53 -97 -106 -194 -118 -216 -60 -109 -91 -164 -182 -330 -55
-99 -113 -205 -130 -235 -16 -30 -103 -188 -193 -350 -90 -162 -181 -326 -202
-365 -63 -115 -124 -237 -143 -289 -18 -47 -19 -48 -29 -25 -23 56 -118 249
-152 309 -47 82 -470 835 -514 915 -18 33 -45 80 -58 105 -14 25 -36 62 -49
82 -12 21 -23 39 -23 42 0 2 -25 48 -56 102 -31 55 -67 119 -81 144 -81 143
-118 209 -137 244 -31 57 -62 86 -93 87 -169 7 -335 5 -340 -5z"/>
</g>
</svg>
