<!--?xml version="1.0" standalone="no"?-->
              <svg id="sw-js-blob-svg" viewBox="0 0 100 100" xmlns="http://www.w3.org/2000/svg" version="1.1">
                    <defs> 
                        <linearGradient id="sw-gradient" x1="0" x2="1" y1="1" y2="0">
                            <stop id="stop1" stop-color="rgba(248, 117, 55, 1)" offset="0%"></stop>
                            <stop id="stop2" stop-color="rgba(251, 168, 31, 1)" offset="100%"></stop>
                        </linearGradient>
                    </defs>
                <path fill="url(#sw-gradient)" d="M16.9,-29.2C21.7,-26.4,25.2,-21.5,30,-16.3C34.8,-11.1,40.8,-5.5,42.8,1.2C44.8,7.9,42.8,15.7,38,20.9C33.3,26.2,25.7,28.8,18.9,31.4C12.1,34,6.1,36.5,-1,38.2C-8,39.9,-16,40.7,-21.3,37.3C-26.7,33.9,-29.4,26.2,-31.8,19.3C-34.2,12.3,-36.4,6.2,-36.7,-0.2C-37,-6.5,-35.4,-13,-32.7,-19.6C-30.1,-26.1,-26.4,-32.8,-20.8,-35.1C-15.2,-37.4,-7.6,-35.5,-0.8,-34.1C6,-32.8,12,-32,16.9,-29.2Z" width="100%" height="100%" transform="translate(50 50)" style="transition: all 0.3s ease 0s;" stroke-width="0"></path>
              </svg>